<?xml version="1.0" standalone="no"?>
<!DOCTYPE svg PUBLIC "-//W3C//DTD SVG 20010904//EN"
 "http://www.w3.org/TR/2001/REC-SVG-20010904/DTD/svg10.dtd">
<svg version="1.0" xmlns="http://www.w3.org/2000/svg"
 width="288.000000pt" height="288.000000pt" viewBox="0 0 288.000000 288.000000"
 preserveAspectRatio="xMidYMid meet">
<metadata>
Created by potrace 1.14, written by Peter Selinger 2001-2017
</metadata>
<g transform="translate(0.000000,288.000000) scale(0.100000,-0.100000)"
fill="#000000" stroke="none">
<path d="M7 2873 c-4 -3 -7 -41 -7 -84 l0 -78 33 10 c17 6 59 12 92 14 100 5
177 -37 207 -113 17 -43 17 -154 0 -195 -7 -15 -15 -39 -18 -53 -4 -14 -13
-28 -20 -31 -8 -3 -14 -10 -14 -15 0 -6 -14 -23 -31 -39 l-31 -29 29 -24 c27
-25 33 -27 72 -30 11 0 22 -4 26 -8 4 -4 18 -3 31 2 13 5 24 7 24 5 0 -3 17 3
38 14 99 51 149 155 146 301 -1 69 -23 157 -45 184 -5 6 -19 23 -30 39 -30 40
-95 81 -169 107 -52 18 -92 24 -196 26 -72 3 -134 1 -137 -3z"/>
<path d="M2364 2730 c-115 -58 -136 -64 -254 -75 -68 -6 -93 -11 -118 -24 -11
-6 -22 -7 -26 -4 -3 3 -6 0 -6 -7 0 -7 -3 -11 -6 -7 -6 5 -95 -39 -181 -89
-18 -11 -99 -57 -180 -103 -217 -123 -335 -201 -304 -201 5 0 13 5 16 10 8 13
25 13 25 1 0 -5 -9 -13 -20 -16 -11 -3 -20 -11 -20 -16 0 -6 19 2 43 16 44 27
218 113 227 112 6 -1 183 95 190 102 3 3 17 12 33 20 15 8 27 18 27 23 0 4 5
8 11 8 7 0 33 13 59 29 153 94 203 114 319 126 30 3 60 10 67 16 7 6 18 8 24
4 5 -3 10 -1 10 6 0 7 3 9 6 6 7 -7 87 33 92 46 2 4 8 5 13 2 4 -3 23 2 41 12
79 41 118 33 194 -39 50 -48 60 -55 157 -107 l78 -42 -3 33 c-3 27 -10 36 -53
57 -27 14 -52 28 -55 31 -3 3 -17 11 -31 18 -14 8 -41 27 -60 43 -19 16 -52
38 -75 49 -68 33 -107 27 -240 -40z"/>
<path d="M1015 2713 c-53 -15 -128 -87 -147 -143 -20 -59 -15 -149 12 -204 24
-46 73 -94 115 -111 37 -14 125 -14 160 1 43 18 96 68 121 114 25 48 25 172 1
218 -32 60 -83 104 -137 119 -28 8 -105 12 -125 6z"/>
<path d="M1897 2134 c-1 -1 -24 -4 -52 -7 -53 -5 -141 -32 -162 -49 -7 -6 -13
-7 -13 -4 0 4 -13 -2 -29 -13 -16 -12 -32 -21 -35 -21 -18 0 -152 -127 -193
-184 -21 -28 -42 -54 -48 -58 -5 -4 -7 -8 -3 -8 4 0 -6 -21 -22 -47 -17 -26
-30 -52 -30 -59 0 -6 -6 -17 -14 -23 -8 -6 -16 -22 -19 -34 -3 -12 -16 -51
-30 -87 -21 -56 -34 -102 -64 -224 -3 -12 -6 -32 -8 -46 -1 -14 -3 -25 -5 -25
-12 0 -17 -258 -6 -342 7 -57 6 -63 -11 -64 -10 -1 -31 -2 -48 -4 -38 -3 -90
18 -103 42 -9 16 -17 98 -12 113 2 5 6 26 14 80 3 19 8 46 11 60 4 14 8 34 10
45 6 38 34 180 39 205 3 14 10 50 16 80 15 82 19 100 24 118 3 9 7 33 10 52 3
19 8 44 10 55 11 53 48 242 51 260 2 11 8 40 13 64 6 24 8 49 6 55 -3 8 -61
11 -197 10 -226 -2 -211 0 -204 -18 3 -8 3 -17 -1 -20 -3 -4 -7 -12 -8 -19 -2
-14 -52 -268 -60 -307 -3 -14 -7 -36 -10 -50 -3 -14 -11 -57 -19 -97 -8 -39
-18 -89 -21 -110 -8 -48 -12 -68 -14 -68 -1 0 -3 -9 -5 -20 -1 -11 -6 -33 -9
-50 -4 -16 -8 -39 -10 -50 -6 -36 -16 -89 -21 -115 -23 -113 -27 -151 -30
-240 -4 -191 75 -323 215 -358 40 -10 146 -9 175 2 11 5 33 13 49 19 49 18
119 98 146 167 24 62 24 62 34 34 5 -16 12 -31 15 -34 4 -3 15 -18 26 -35 10
-16 29 -38 42 -48 13 -10 29 -24 36 -31 14 -14 82 -47 106 -51 9 -2 17 -4 19
-5 3 -3 10 -5 62 -15 45 -8 147 -9 185 -1 40 8 110 28 120 34 6 4 12 7 15 7 3
0 30 15 60 34 74 46 220 196 220 227 0 7 4 14 8 16 17 7 104 199 118 261 1 4
2 8 4 10 3 4 12 42 13 60 1 9 4 17 8 17 4 0 6 6 6 13 -1 6 5 46 12 87 8 41 15
90 15 107 1 18 6 37 12 43 9 9 142 50 172 52 6 1 12 6 12 11 0 6 3 7 6 4 4 -3
16 -1 27 4 18 10 19 9 12 -27 -4 -22 -9 -50 -12 -64 -2 -14 -14 -70 -25 -125
-12 -55 -21 -110 -22 -122 0 -13 -4 -23 -9 -23 -4 0 -6 -4 -3 -8 3 -4 1 -26
-4 -48 -5 -21 -11 -51 -14 -66 -5 -27 -31 -160 -42 -208 -3 -14 -7 -38 -9 -54
-2 -15 -7 -35 -9 -45 -3 -9 -8 -32 -11 -51 -3 -19 -8 -43 -11 -53 -12 -38 -12
-77 -2 -83 13 -9 88 -12 88 -4 0 3 16 5 35 5 19 0 35 -3 35 -7 0 -4 14 -3 30
2 17 5 30 6 30 2 0 -4 25 -7 55 -7 30 0 55 2 55 5 0 4 16 4 35 2 19 -2 35 -2
35 0 0 2 9 44 19 93 11 50 22 104 25 120 3 17 10 55 16 85 7 30 14 69 17 85 3
17 13 68 23 115 17 75 19 139 20 567 l0 481 -110 1 c-125 0 -121 3 -135 -90
-4 -24 -8 -46 -10 -49 -2 -3 -6 -21 -9 -40 -19 -120 -46 -234 -58 -241 -25
-17 -143 -49 -191 -53 -55 -4 -55 -5 -61 82 -9 110 -32 200 -68 264 -23 41
-138 144 -138 123 0 -3 -14 2 -31 11 -25 12 -162 27 -172 18z m133 -209 c39
-35 54 -157 21 -174 -35 -19 -62 -77 -64 -136 -2 -71 4 -89 39 -121 33 -32 35
-36 29 -81 -16 -115 -67 -288 -111 -375 -14 -27 -24 -51 -23 -54 0 -4 -3 -10
-8 -13 -5 -3 -20 -22 -33 -41 -50 -71 -93 -99 -157 -103 -64 -4 -103 23 -124
86 -22 67 -19 265 6 387 2 8 7 36 11 63 3 26 10 47 14 47 3 0 7 6 7 13 0 6 3
25 7 42 5 27 10 43 32 100 4 11 8 22 9 25 13 49 85 203 97 208 4 2 8 10 8 18
0 8 7 17 15 20 8 4 15 10 15 15 0 22 67 74 120 93 23 8 72 -2 90 -19z"/>
<path d="M0 1774 c0 -302 3 -369 16 -415 26 -87 28 -99 27 -204 0 -109 -5
-143 -28 -198 -12 -28 -15 -79 -15 -227 0 -104 2 -190 4 -190 3 0 17 5 33 12
15 6 30 12 33 13 32 7 142 72 148 88 2 4 7 5 11 3 6 -4 116 104 153 151 33 43
94 174 104 223 3 14 7 32 9 40 19 67 25 247 12 344 -10 65 -50 182 -83 242
-54 98 -91 142 -256 308 l-168 170 0 -360z"/>
<path d="M50 320 c-11 -7 -11 -10 -2 -10 8 0 10 -5 6 -12 -4 -7 -3 -9 1 -5 7
6 17 37 12 37 -1 0 -9 -5 -17 -10z"/>
<path d="M127 319 c7 -7 15 -10 18 -7 3 3 -2 9 -12 12 -14 6 -15 5 -6 -5z"/>
<path d="M472 321 c-11 -7 -11 -9 0 -14 9 -3 15 1 15 9 0 8 -1 14 -1 14 -1 0
-7 -4 -14 -9z"/>
<path d="M530 320 c-11 -7 -11 -10 -2 -10 8 0 10 -5 6 -12 -4 -7 -3 -9 1 -5 7
6 17 37 12 37 -1 0 -9 -5 -17 -10z"/>
<path d="M592 321 c-11 -7 -11 -9 0 -14 9 -3 15 1 15 9 0 8 -1 14 -1 14 -1 0
-7 -4 -14 -9z"/>
<path d="M650 320 c-11 -7 -11 -10 -2 -10 8 0 10 -5 6 -12 -4 -7 -3 -9 1 -5 7
6 17 37 12 37 -1 0 -9 -5 -17 -10z"/>
<path d="M721 318 c-1 -21 15 -32 25 -17 4 7 3 9 -4 5 -6 -3 -13 2 -15 11 -4
16 -5 16 -6 1z"/>
<path d="M781 314 c0 -11 3 -14 6 -6 3 7 2 16 -1 19 -3 4 -6 -2 -5 -13z"/>
<path d="M832 321 c-11 -7 -11 -9 0 -14 9 -3 15 1 15 9 0 8 -1 14 -1 14 -1 0
-7 -4 -14 -9z"/>
<path d="M890 320 c-11 -7 -11 -10 -2 -10 8 0 10 -5 6 -12 -4 -7 -3 -9 1 -5 7
6 17 37 12 37 -1 0 -9 -5 -17 -10z"/>
<path d="M961 318 c-1 -21 15 -32 25 -17 4 7 3 9 -4 5 -6 -3 -13 2 -15 11 -4
16 -5 16 -6 1z"/>
<path d="M1021 314 c0 -11 3 -14 6 -6 3 7 2 16 -1 19 -3 4 -6 -2 -5 -13z"/>
<path d="M1305 317 c-15 -12 -16 -15 -4 -22 8 -5 11 -5 7 0 -4 4 0 14 10 21
23 18 11 18 -13 1z"/>
<path d="M1364 315 c-18 -15 -18 -15 0 -8 15 5 17 3 11 -8 -5 -8 -4 -11 0 -6
8 7 17 37 11 37 -1 0 -11 -7 -22 -15z"/>
<path d="M1441 314 c0 -11 3 -14 6 -6 3 7 2 16 -1 19 -3 4 -6 -2 -5 -13z"/>
<path d="M1501 314 c0 -11 3 -14 6 -6 3 7 2 16 -1 19 -3 4 -6 -2 -5 -13z"/>
<path d="M1724 314 c-18 -14 -18 -15 4 -4 12 6 22 13 22 15 0 8 -5 6 -26 -11z"/>
<path d="M1800 316 c0 -8 4 -17 9 -20 5 -4 7 3 4 14 -6 23 -13 26 -13 6z"/>
<path d="M1927 319 c7 -7 15 -10 18 -7 3 3 -2 9 -12 12 -14 6 -15 5 -6 -5z"/>
<path d="M2024 314 c-18 -14 -18 -15 4 -4 12 6 22 13 22 15 0 8 -5 6 -26 -11z"/>
<path d="M2084 314 c-18 -14 -18 -15 4 -4 12 6 22 13 22 15 0 8 -5 6 -26 -11z"/>
<path d="M2152 321 c-11 -7 -11 -9 0 -14 9 -3 15 1 15 9 0 8 -1 14 -1 14 -1 0
-7 -4 -14 -9z"/>
<path d="M2221 314 c0 -11 3 -14 6 -6 3 7 2 16 -1 19 -3 4 -6 -2 -5 -13z"/>
<path d="M2287 319 c7 -7 15 -10 18 -7 3 3 -2 9 -12 12 -14 6 -15 5 -6 -5z"/>
<path d="M2505 317 c-15 -12 -16 -15 -4 -22 8 -5 11 -5 7 0 -4 4 0 14 10 21
23 18 11 18 -13 1z"/>
<path d="M2755 320 c-3 -5 -1 -10 4 -10 6 0 11 5 11 10 0 6 -2 10 -4 10 -3 0
-8 -4 -11 -10z"/>
<path d="M2816 322 c-3 -5 1 -9 9 -9 8 0 12 4 9 9 -3 4 -7 8 -9 8 -2 0 -6 -4
-9 -8z"/>
<path d="M266 303 c-6 -14 -5 -15 5 -6 7 7 10 15 7 18 -3 3 -9 -2 -12 -12z"/>
<path d="M1106 303 c-6 -14 -5 -15 5 -6 7 7 10 15 7 18 -3 3 -9 -2 -12 -12z"/>
<path d="M1586 303 c-6 -14 -5 -15 5 -6 7 7 10 15 7 18 -3 3 -9 -2 -12 -12z"/>
<path d="M2426 303 c-6 -14 -5 -15 5 -6 7 7 10 15 7 18 -3 3 -9 -2 -12 -12z"/>
<path d="M2555 310 c-3 -5 -1 -10 4 -10 6 0 11 5 11 10 0 6 -2 10 -4 10 -3 0
-8 -4 -11 -10z"/>
<path d="M95 301 c-9 -15 15 -25 28 -12 9 9 7 10 -7 5 -13 -5 -17 -4 -12 4 4
7 5 12 2 12 -3 0 -7 -4 -11 -9z"/>
<path d="M176 299 c4 -8 -1 -9 -17 -5 -13 3 -18 3 -11 0 6 -3 9 -10 6 -16 -4
-6 3 -5 15 2 18 9 21 30 5 30 -3 0 -2 -5 2 -11z"/>
<path d="M230 301 c0 -6 4 -13 10 -16 6 -3 7 1 4 9 -7 18 -14 21 -14 7z"/>
<path d="M313 288 c1 -15 6 -23 11 -18 4 4 4 16 -2 26 -9 16 -10 14 -9 -8z"/>
<path d="M668 288 c-10 -10 -14 -18 -9 -18 10 0 36 29 30 34 -2 1 -12 -6 -21
-16z"/>
<path d="M748 288 c-10 -10 -14 -18 -9 -18 10 0 36 29 30 34 -2 1 -12 -6 -21
-16z"/>
<path d="M908 288 c-10 -10 -14 -18 -9 -18 10 0 36 29 30 34 -2 1 -12 -6 -21
-16z"/>
<path d="M988 288 c-10 -10 -14 -18 -9 -18 10 0 36 29 30 34 -2 1 -12 -6 -21
-16z"/>
<path d="M1070 301 c0 -10 29 -36 34 -30 1 2 -6 12 -16 22 -10 9 -18 13 -18 8z"/>
<path d="M1150 305 c0 -5 5 -17 10 -25 5 -8 10 -10 10 -5 0 6 -5 17 -10 25 -5
8 -10 11 -10 5z"/>
<path d="M1388 288 c-10 -10 -14 -18 -9 -18 10 0 36 29 30 34 -2 1 -12 -6 -21
-16z"/>
<path d="M1550 301 c0 -10 29 -36 34 -30 1 2 -6 12 -16 22 -10 9 -18 13 -18 8z"/>
<path d="M1630 305 c0 -5 5 -17 10 -25 5 -8 10 -10 10 -5 0 6 -5 17 -10 25 -5
8 -10 11 -10 5z"/>
<path d="M1755 301 c3 -5 1 -12 -5 -16 -5 -3 -10 -11 -10 -18 0 -6 7 -2 15 9
17 23 19 34 4 34 -5 0 -8 -4 -4 -9z"/>
<path d="M1836 293 c-6 -14 -5 -15 5 -6 7 7 10 15 7 18 -3 3 -9 -2 -12 -12z"/>
<path d="M1895 300 c-3 -6 1 -13 9 -16 9 -3 13 -11 9 -17 -3 -6 -1 -7 6 -3 6
4 9 11 6 16 -3 4 1 11 7 14 7 3 2 3 -11 0 -16 -4 -21 -3 -17 5 4 6 5 11 2 11
-3 0 -8 -5 -11 -10z"/>
<path d="M1955 301 c-9 -15 15 -25 28 -12 9 9 7 10 -7 5 -13 -5 -17 -4 -12 4
4 7 5 12 2 12 -3 0 -7 -4 -11 -9z"/>
<path d="M2275 300 c6 -10 4 -12 -11 -6 -15 6 -17 5 -6 -5 9 -9 15 -10 23 -2
8 8 7 13 -2 18 -8 6 -10 4 -4 -5z"/>
<path d="M2335 300 c5 -9 1 -11 -16 -6 -13 3 -18 3 -11 0 6 -3 10 -10 7 -14
-3 -5 0 -12 7 -16 7 -4 10 -4 6 1 -4 4 0 13 9 20 13 9 13 14 3 20 -9 6 -11 4
-5 -5z"/>
<path d="M2390 301 c0 -6 4 -13 10 -16 6 -3 7 1 4 9 -7 18 -14 21 -14 7z"/>
<path d="M2470 303 c0 -6 8 -17 18 -24 16 -13 16 -13 2 6 -8 11 -16 22 -17 24
-2 2 -3 0 -3 -6z"/>
<path d="M2596 295 c-3 -9 -10 -13 -16 -10 -5 3 -10 1 -10 -4 0 -6 4 -11 9
-11 12 0 35 29 29 36 -3 3 -8 -2 -12 -11z"/>
<path d="M2719 308 c-5 -18 -6 -38 -1 -34 7 8 12 36 6 36 -2 0 -4 -1 -5 -2z"/>
<path d="M2794 296 c1 -8 5 -18 8 -22 4 -3 5 1 4 10 -1 8 -5 18 -8 22 -4 3 -5
-1 -4 -10z"/>
<path d="M203 281 c-10 -15 -9 -20 2 -25 8 -3 17 0 21 6 5 7 2 8 -6 3 -9 -5
-10 -2 -5 14 8 26 4 27 -12 2z"/>
<path d="M354 280 c0 -13 4 -16 10 -10 7 7 7 13 0 20 -6 6 -10 3 -10 -10z"/>
<path d="M1050 291 c0 -8 -7 -11 -17 -6 -15 5 -16 4 -5 -6 9 -10 15 -10 24 -1
6 6 9 15 5 19 -4 3 -7 1 -7 -6z"/>
<path d="M1474 289 c-3 -6 -2 -15 3 -20 5 -5 9 -1 9 11 0 23 -2 24 -12 9z"/>
<path d="M1530 291 c0 -8 -7 -11 -17 -6 -15 5 -16 4 -5 -6 9 -10 15 -10 24 -1
6 6 9 15 5 19 -4 3 -7 1 -7 -6z"/>
<path d="M1866 281 c4 -17 3 -21 -6 -16 -9 6 -11 4 -5 -4 5 -9 11 -9 17 -3 7
7 6 16 -1 29 -11 16 -11 15 -5 -6z"/>
<path d="M2194 289 c-3 -6 -2 -15 3 -20 5 -5 9 -1 9 11 0 23 -2 24 -12 9z"/>
<path d="M2366 283 c-8 -20 9 -40 19 -22 6 8 4 10 -5 4 -9 -5 -10 -2 -5 14 8
25 0 29 -9 4z"/>
<path d="M2670 290 c-8 -5 -12 -11 -10 -14 3 -2 14 2 24 10 22 15 10 19 -14 4z"/>
<path d="M2740 294 c0 -13 18 -39 24 -34 2 3 -2 14 -10 24 -8 11 -14 16 -14
10z"/>
<path d="M2836 286 c10 -8 21 -12 24 -10 5 6 -21 24 -34 24 -6 0 -1 -6 10 -14z"/>
<path d="M28 272 c9 -10 19 -17 21 -16 6 5 -20 34 -30 34 -5 0 -1 -8 9 -18z"/>
<path d="M65 279 c-4 -6 -5 -12 -2 -15 2 -3 7 2 10 11 7 17 1 20 -8 4z"/>
<path d="M276 274 c-11 -8 -16 -14 -10 -14 13 0 39 18 34 24 -3 2 -14 -2 -24
-10z"/>
<path d="M427 283 c-3 -5 6 -9 20 -10 19 -1 22 1 12 8 -17 11 -26 11 -32 2z"/>
<path d="M508 272 c9 -10 19 -17 21 -16 6 5 -20 34 -30 34 -5 0 -1 -8 9 -18z"/>
<path d="M544 279 c-5 -8 -3 -9 6 -4 7 4 16 2 22 -6 8 -12 9 -12 6 0 -6 20
-24 25 -34 10z"/>
<path d="M600 275 c-19 -22 -8 -25 13 -3 9 10 13 18 8 18 -5 0 -14 -7 -21 -15z"/>
<path d="M786 279 c3 -5 9 -7 14 -4 4 3 11 0 13 -5 3 -6 4 -5 3 1 -1 7 -10 13
-19 15 -9 1 -15 -2 -11 -7z"/>
<path d="M840 275 c-19 -22 -8 -25 13 -3 9 10 13 18 8 18 -5 0 -14 -7 -21 -15z"/>
<path d="M1125 279 c-4 -6 -5 -12 -2 -15 2 -3 7 2 10 11 7 17 1 20 -8 4z"/>
<path d="M1265 279 c-4 -6 -4 -13 -1 -16 3 -4 6 -1 6 6 0 8 6 11 16 7 8 -3 12
-2 9 4 -8 13 -22 13 -30 -1z"/>
<path d="M1320 275 c-19 -22 -8 -25 13 -3 9 10 13 18 8 18 -5 0 -14 -7 -21
-15z"/>
<path d="M1605 279 c-4 -6 -5 -12 -2 -15 2 -3 7 2 10 11 7 17 1 20 -8 4z"/>
<path d="M1777 276 c-4 -9 -1 -18 5 -22 7 -5 8 -2 3 6 -6 9 -2 10 16 5 13 -4
22 -6 19 -3 -34 27 -38 28 -43 14z"/>
<path d="M2040 275 c-19 -22 -8 -25 13 -3 9 10 13 18 8 18 -5 0 -14 -7 -21
-15z"/>
<path d="M2101 281 c-10 -7 -7 -9 12 -8 14 1 23 5 20 10 -6 9 -15 9 -32 -2z"/>
<path d="M2435 274 c-20 -16 -19 -16 4 -9 18 5 22 4 16 -5 -5 -8 -4 -11 3 -6
6 4 9 13 5 21 -6 18 -3 18 -28 -1z"/>
<path d="M2520 275 c-19 -22 -8 -25 13 -3 9 10 13 18 8 18 -5 0 -14 -7 -21
-15z"/>
<path d="M2631 273 c7 -12 15 -20 18 -17 3 2 -3 12 -13 22 -17 16 -18 16 -5
-5z"/>
<path d="M710 269 c0 -5 -6 -7 -12 -3 -7 4 -9 3 -5 -1 13 -15 36 -14 30 1 -6
17 -13 18 -13 3z"/>
<path d="M950 269 c0 -5 -6 -7 -12 -3 -7 4 -9 3 -5 -1 13 -15 36 -14 30 1 -6
17 -13 18 -13 3z"/>
<path d="M1235 271 c-3 -5 -2 -12 3 -15 5 -3 9 1 9 9 0 17 -3 19 -12 6z"/>
<path d="M1715 271 c-3 -5 -2 -12 3 -15 5 -3 9 1 9 9 0 17 -3 19 -12 6z"/>
<path d="M476 261 c-18 -7 -18 -8 -3 -14 9 -3 17 -2 17 4 0 6 5 7 12 3 7 -4 8
-3 4 4 -4 7 -8 12 -9 11 -1 0 -11 -4 -21 -8z"/>
<path d="M628 263 c6 -2 9 -10 6 -15 -4 -7 -2 -8 5 -4 13 9 5 26 -12 25 -9 0
-8 -2 1 -6z"/>
<path d="M774 263 c4 -7 2 -13 -3 -13 -6 0 -11 -5 -11 -11 0 -5 4 -8 9 -5 5 4
12 0 15 -6 2 -7 4 -3 2 9 -1 12 -6 26 -11 30 -4 5 -5 2 -1 -4z"/>
<path d="M868 263 c6 -2 9 -10 6 -15 -4 -7 -2 -8 5 -4 13 9 5 26 -12 25 -9 0
-8 -2 1 -6z"/>
<path d="M1059 268 c-8 -27 -5 -36 9 -30 10 4 12 7 4 10 -7 2 -10 8 -6 13 3 5
3 9 0 9 -3 0 -6 -1 -7 -2z"/>
<path d="M1195 260 c-3 -6 1 -7 9 -4 18 7 21 14 7 14 -6 0 -13 -4 -16 -10z"/>
<path d="M1333 258 c-3 -6 -1 -8 5 -4 5 3 12 2 14 -4 2 -5 9 -6 16 -1 10 6 9
10 -7 14 -12 3 -24 0 -28 -5z"/>
<path d="M1535 261 c-9 -15 15 -25 28 -12 9 9 7 10 -7 5 -13 -5 -17 -4 -12 4
4 7 5 12 2 12 -3 0 -7 -4 -11 -9z"/>
<path d="M1675 261 c-3 -5 0 -13 6 -17 7 -4 9 -3 5 4 -3 5 0 13 6 15 9 4 10 6
1 6 -6 1 -14 -3 -18 -8z"/>
<path d="M2053 258 c-3 -6 -1 -8 5 -4 5 3 12 2 14 -4 2 -5 9 -6 16 -1 10 6 9
10 -7 14 -12 3 -24 0 -28 -5z"/>
<path d="M2534 258 c-4 -6 -3 -8 3 -5 6 4 13 0 17 -8 3 -8 11 -15 18 -14 10 0
10 2 0 6 -6 2 -10 8 -7 13 3 4 -2 10 -10 14 -8 3 -17 0 -21 -6z"/>
<path d="M2815 259 c-5 -8 -4 -10 3 -5 7 4 12 3 12 -3 0 -5 -6 -12 -12 -14
-10 -4 -10 -6 -1 -6 17 -1 27 19 15 31 -6 6 -12 6 -17 -3z"/>
<path d="M120 252 c0 -7 -5 -10 -12 -6 -7 4 -8 3 -4 -5 4 -6 12 -9 17 -6 5 4
9 1 9 -6 0 -7 3 -10 6 -6 3 3 1 14 -5 24 -6 11 -11 13 -11 5z"/>
<path d="M334 237 c2 -20 -1 -27 -12 -25 -13 2 -16 -5 -13 -39 1 -23 3 -69 4
-102 2 -53 0 -58 -15 -50 -9 5 -23 9 -30 9 -7 -1 1 -7 19 -15 41 -18 77 -16
61 2 -10 12 -4 17 15 14 11 -2 8 17 -4 21 -19 6 -17 54 2 66 12 8 20 8 24 2 4
-6 10 -8 15 -5 5 3 11 1 15 -5 3 -5 -2 -10 -12 -11 -14 0 -12 -3 6 -10 16 -6
21 -13 14 -20 -16 -16 -3 -69 17 -69 14 0 17 8 14 53 -1 28 -3 54 -4 57 -1 3
-2 8 -1 13 0 4 -3 7 -9 7 -5 0 -10 12 -11 28 l-1 27 -8 -25 c-4 -14 -8 -20 -9
-14 -1 7 -15 10 -34 8 -31 -4 -33 -2 -32 29 1 17 -2 43 -7 57 -7 24 -8 24 -4
-3z"/>
<path d="M393 241 c0 -11 5 -17 9 -15 5 3 6 9 3 14 -3 4 1 11 7 13 8 4 7 6 -4
6 -11 1 -16 -6 -15 -18z"/>
<path d="M536 244 c-4 -9 -4 -19 -1 -22 3 -3 5 0 5 7 0 7 4 9 10 6 6 -3 7 1 4
9 -8 20 -10 20 -18 0z"/>
<path d="M672 246 c7 -8 15 -12 17 -11 5 6 -10 25 -20 25 -5 0 -4 -6 3 -14z"/>
<path d="M900 256 c0 -2 7 -7 16 -10 8 -3 12 -2 9 4 -6 10 -25 14 -25 6z"/>
<path d="M1012 251 c-11 -6 -10 -10 4 -15 9 -3 19 -4 22 -1 3 3 0 5 -7 5 -7 0
-9 5 -6 10 7 12 4 12 -13 1z"/>
<path d="M1155 250 c-3 -6 1 -7 9 -4 18 7 21 14 7 14 -6 0 -13 -4 -16 -10z"/>
<path d="M1290 250 c0 -5 9 -14 20 -20 11 -6 20 -9 20 -8 0 2 -9 11 -20 21
-11 9 -20 13 -20 7z"/>
<path d="M1394 243 c2 -9 8 -18 15 -19 6 -1 7 0 1 3 -5 2 -8 9 -5 13 3 5 1 11
-4 14 -5 4 -8 -2 -7 -11z"/>
<path d="M1428 253 c6 -2 10 -8 8 -12 -3 -4 1 -8 8 -8 8 0 12 6 9 14 -3 7 -13
13 -22 12 -10 0 -11 -2 -3 -6z"/>
<path d="M1497 241 c-3 -12 0 -24 5 -28 6 -3 8 -1 4 5 -3 5 -2 12 4 14 5 2 6
9 1 16 -6 10 -10 9 -14 -7z"/>
<path d="M1635 251 c-3 -5 0 -13 6 -17 7 -4 9 -3 5 4 -3 5 0 13 6 15 9 4 10 6
1 6 -6 1 -14 -3 -18 -8z"/>
<path d="M1947 246 c-4 -11 -5 -21 -2 -24 3 -3 5 0 5 7 0 7 4 10 9 6 5 -3 13
0 17 6 4 7 3 9 -4 5 -5 -3 -12 -1 -14 6 -3 7 -7 5 -11 -6z"/>
<path d="M2007 246 c-4 -10 -3 -15 3 -11 6 3 10 1 10 -6 0 -7 3 -10 6 -6 3 3
2 13 -4 22 -8 16 -9 16 -15 1z"/>
<path d="M2115 251 c4 -8 2 -17 -6 -22 -9 -6 -10 -9 -2 -9 19 0 27 21 13 33
-10 9 -11 9 -5 -2z"/>
<path d="M2140 256 c0 -2 7 -6 15 -10 8 -3 15 -1 15 4 0 6 -7 10 -15 10 -8 0
-15 -2 -15 -4z"/>
<path d="M2220 249 c0 -5 -4 -7 -10 -4 -5 3 -10 1 -10 -4 0 -6 5 -11 11 -11 5
0 7 -6 3 -12 -4 -7 -3 -10 1 -5 10 8 18 47 10 47 -3 0 -5 -5 -5 -11z"/>
<path d="M2280 251 c0 -6 4 -13 10 -16 6 -3 7 1 4 9 -7 18 -14 21 -14 7z"/>
<path d="M2490 252 c0 -7 -5 -10 -12 -6 -7 4 -8 3 -4 -5 4 -6 12 -9 17 -6 5 4
9 1 9 -6 0 -7 3 -10 6 -6 3 3 1 14 -5 24 -6 11 -11 13 -11 5z"/>
<path d="M2620 245 c0 -8 4 -15 10 -15 5 0 7 7 4 15 -4 8 -8 15 -10 15 -2 0
-4 -7 -4 -15z"/>
<path d="M55 239 c-4 -6 -4 -13 -1 -16 3 -4 6 -1 6 6 0 7 5 9 12 5 7 -4 8 -3
4 4 -9 15 -13 15 -21 1z"/>
<path d="M160 235 c-19 -22 -8 -25 13 -3 9 10 13 18 8 18 -5 0 -14 -7 -21 -15z"/>
<path d="M220 240 c-9 -6 -10 -10 -3 -10 6 0 15 5 18 10 8 12 4 12 -15 0z"/>
<path d="M810 246 c0 -3 9 -10 20 -16 11 -6 20 -8 20 -6 0 3 -9 10 -20 16 -11
6 -20 8 -20 6z"/>
<path d="M1112 239 c-19 -7 -23 -29 -6 -29 3 0 2 5 -1 10 -3 6 1 10 9 10 8 0
18 5 21 10 7 12 7 12 -23 -1z"/>
<path d="M1222 236 c7 -8 15 -12 17 -11 5 6 -10 25 -20 25 -5 0 -4 -6 3 -14z"/>
<path d="M1592 239 c-19 -7 -23 -29 -6 -29 3 0 2 5 -1 10 -3 6 1 10 9 10 8 0
18 5 21 10 7 12 7 12 -23 -1z"/>
<path d="M1706 237 c3 -10 9 -15 12 -12 3 3 0 11 -7 18 -10 9 -11 8 -5 -6z"/>
<path d="M1753 230 c-1 -11 2 -20 5 -20 4 0 8 9 9 20 1 11 -2 20 -5 20 -4 0
-8 -9 -9 -20z"/>
<path d="M1806 242 c-3 -5 1 -9 9 -9 8 0 15 4 15 9 0 4 -4 8 -9 8 -6 0 -12 -4
-15 -8z"/>
<path d="M1890 240 c0 -5 5 -10 10 -10 6 0 10 5 10 10 0 6 -4 10 -10 10 -5 0
-10 -4 -10 -10z"/>
<path d="M2428 232 c9 -10 19 -17 21 -16 6 5 -20 34 -30 34 -5 0 -1 -8 9 -18z"/>
<path d="M2686 238 c3 -5 10 -6 15 -3 13 9 11 12 -6 12 -8 0 -12 -4 -9 -9z"/>
<path d="M2726 239 c3 -5 9 -7 14 -4 5 3 11 1 15 -5 3 -5 12 -10 18 -10 7 0 3
6 -8 12 -25 15 -47 19 -39 7z"/>
<path d="M593 225 c0 -8 4 -15 9 -15 4 0 8 4 8 9 0 6 -4 12 -8 15 -5 3 -9 -1
-9 -9z"/>
<path d="M710 230 c-13 -8 -12 -10 3 -10 9 0 17 5 17 10 0 12 -1 12 -20 0z"/>
<path d="M958 233 c7 -3 16 -2 19 1 4 3 -2 6 -13 5 -11 0 -14 -3 -6 -6z"/>
<path d="M2315 230 c3 -6 1 -10 -6 -10 -7 0 -10 -3 -6 -6 3 -3 13 -2 22 4 16
8 16 9 1 15 -10 4 -15 3 -11 -3z"/>
<path d="M30 225 c0 -5 5 -17 10 -25 5 -8 10 -10 10 -5 0 6 -5 17 -10 25 -5 8
-10 11 -10 5z"/>
<path d="M186 216 c6 -15 4 -17 -6 -11 -9 6 -11 4 -5 -4 5 -9 10 -10 18 -2 8
8 7 14 -2 24 -10 10 -11 8 -5 -7z"/>
<path d="M415 219 c-6 -8 -4 -10 5 -4 10 6 12 4 6 -11 -6 -15 -5 -17 5 -6 9 9
10 15 2 23 -8 8 -13 7 -18 -2z"/>
<path d="M510 221 c0 -10 29 -36 34 -30 1 2 -6 12 -16 22 -10 9 -18 13 -18 8z"/>
<path d="M1070 221 c0 -10 29 -36 34 -30 1 2 -6 12 -16 22 -10 9 -18 13 -18 8z"/>
<path d="M1135 219 c-6 -8 -4 -10 5 -4 9 5 10 1 6 -16 -6 -21 -6 -22 5 -6 7
13 8 22 1 29 -6 6 -12 6 -17 -3z"/>
<path d="M1270 223 c1 -13 30 -48 30 -36 0 7 -5 15 -10 18 -6 4 -8 11 -5 16 4
5 1 9 -4 9 -6 0 -11 -3 -11 -7z"/>
<path d="M1470 221 c0 -10 29 -36 34 -30 1 2 -6 12 -16 22 -10 9 -18 13 -18 8z"/>
<path d="M1550 221 c0 -10 29 -36 34 -30 1 2 -6 12 -16 22 -10 9 -18 13 -18 8z"/>
<path d="M1626 222 c2 -3 -4 -11 -14 -19 -9 -8 -12 -12 -7 -10 6 3 11 -5 11
-17 1 -16 -4 -22 -20 -23 -11 0 -30 -4 -41 -8 l-20 -8 20 24 20 24 -22 -18
c-13 -12 -27 -16 -35 -11 -9 5 -9 2 2 -10 13 -16 12 -20 -5 -32 -10 -8 -13
-14 -6 -14 9 0 8 -5 -3 -16 -17 -17 -21 -28 -7 -20 5 3 8 -5 7 -18 0 -13 -4
-22 -8 -20 -4 2 -10 -1 -14 -7 -4 -7 -3 -9 4 -5 6 3 13 2 17 -4 11 -17 44 -11
55 10 6 11 15 18 21 15 5 -4 9 -1 9 4 0 18 -18 12 -34 -11 -15 -21 -22 -17
-16 7 1 6 3 26 4 45 1 19 6 35 12 35 5 0 15 4 23 9 10 6 12 6 7 -3 -6 -8 -2
-11 10 -9 14 2 19 -3 19 -24 1 -16 -3 -24 -10 -20 -5 3 -4 -1 3 -10 14 -18 5
-51 -12 -41 -6 3 -7 2 -3 -2 12 -14 60 -18 52 -5 -4 7 3 9 22 5 l28 -5 -26 10
c-21 9 -26 16 -21 33 2 12 10 28 16 36 8 11 8 13 0 8 -7 -4 -14 1 -17 12 -3
12 1 22 11 26 12 4 13 8 4 17 -15 15 -16 55 -2 63 6 3 10 1 10 -4 0 -6 5 -11
11 -11 8 0 8 5 -1 15 -9 10 -16 12 -25 5 -6 -5 -16 -6 -22 -1 -5 5 -8 6 -7 3z"/>
<path d="M2028 208 c-10 -10 -14 -18 -9 -18 10 0 36 29 30 34 -2 1 -12 -6 -21
-16z"/>
<path d="M2150 210 c-6 -11 -8 -20 -6 -20 3 0 10 9 16 20 6 11 8 20 6 20 -3 0
-10 -9 -16 -20z"/>
<path d="M2387 213 c3 -7 8 -13 12 -13 4 0 8 6 8 13 0 8 -6 14 -13 14 -7 0
-10 -6 -7 -14z"/>
<path d="M2505 205 c-18 -21 -20 -22 -33 -7 -7 10 -11 11 -7 4 4 -7 1 -20 -7
-29 -7 -10 -8 -14 -1 -10 12 7 12 -10 1 -28 -7 -12 -23 -87 -20 -97 1 -5 -2
-8 -8 -8 -5 0 -7 -7 -4 -15 6 -15 33 -21 35 -7 0 4 3 16 5 27 3 11 6 26 6 33
1 7 7 11 15 8 7 -3 13 -1 13 4 0 6 -8 10 -17 11 -11 0 -13 3 -5 6 6 2 9 9 6
15 -4 6 1 8 12 6 11 -2 18 -10 17 -16 -2 -7 2 -12 8 -12 18 0 4 24 -22 37 -13
7 -18 13 -11 13 6 0 12 10 12 22 0 12 7 30 17 40 9 10 14 20 12 22 -2 2 -13
-7 -24 -19z"/>
<path d="M2669 219 c-1 -8 -1 -20 0 -28 2 -8 -2 -10 -10 -5 -8 4 -10 3 -5 -4
12 -20 47 -14 53 8 5 17 8 18 21 8 14 -12 14 -10 2 12 -8 15 -15 20 -18 12 -2
-6 -9 -9 -14 -6 -7 5 -8 2 -4 -7 4 -8 0 -5 -8 5 -12 15 -16 16 -17 5z"/>
<path d="M2855 220 c5 -9 1 -10 -16 -6 -21 6 -22 6 -6 -5 13 -7 22 -8 29 -1 6
6 6 12 -3 17 -8 6 -10 4 -4 -5z"/>
<path d="M77 209 c7 -7 15 -10 18 -7 3 3 -2 9 -12 12 -14 6 -15 5 -6 -5z"/>
<path d="M234 212 c4 -7 1 -12 -6 -12 -8 0 -6 -5 5 -11 10 -6 21 -8 24 -5 4 3
1 6 -6 6 -7 0 -10 4 -6 9 3 5 0 13 -6 17 -8 4 -9 3 -5 -4z"/>
<path d="M268 213 c6 -2 9 -10 6 -15 -4 -7 -2 -8 5 -4 13 9 5 26 -12 25 -9 0
-8 -2 1 -6z"/>
<path d="M557 209 c7 -7 15 -10 18 -7 3 3 -2 9 -12 12 -14 6 -15 5 -6 -5z"/>
<path d="M640 211 c0 -7 -5 -9 -12 -5 -7 4 -8 3 -4 -4 6 -11 -31 -38 -46 -34
-5 1 -8 -3 -8 -8 0 -14 11 -12 34 5 10 8 23 12 29 8 6 -3 7 -1 3 5 -4 7 -2 12
3 12 15 0 14 -27 -1 -33 -10 -4 -10 -6 -1 -6 9 -1 10 -8 2 -28 -7 -18 -6 -28
1 -33 8 -5 6 -12 -5 -24 -9 -9 -11 -16 -5 -16 6 0 8 -4 5 -10 -3 -5 0 -10 7
-10 10 0 9 -3 -2 -10 -12 -8 -12 -10 4 -16 22 -8 36 10 28 39 -3 14 -1 18 6
13 7 -4 12 -2 12 3 0 6 -3 11 -8 11 -4 0 -8 13 -8 30 -1 16 2 28 6 25 3 -2 7
2 7 10 0 8 -3 12 -7 10 -3 -2 -12 0 -18 4 -9 6 -7 14 10 32 13 13 21 23 19 22
-2 -2 -11 3 -19 10 -13 10 -14 9 -7 -3 8 -13 7 -13 -8 -1 -12 9 -17 10 -17 2z"/>
<path d="M754 209 c-3 -6 -2 -15 3 -20 5 -5 9 -1 9 11 0 23 -2 24 -12 9z"/>
<path d="M875 210 c-3 -5 -3 -10 2 -10 4 0 1 -5 -7 -10 -8 -5 -10 -10 -5 -10
6 0 17 5 25 10 11 7 11 10 2 10 -7 0 -10 5 -7 10 3 6 4 10 1 10 -3 0 -8 -4
-11 -10z"/>
<path d="M1360 211 c0 -6 4 -13 10 -16 6 -3 7 1 4 9 -7 18 -14 21 -14 7z"/>
<path d="M1790 210 c-8 -5 -12 -11 -10 -14 3 -2 14 2 24 10 22 15 10 19 -14 4z"/>
<path d="M1866 204 c-9 -24 -2 -26 12 -4 7 11 8 20 3 20 -5 0 -12 -7 -15 -16z"/>
<path d="M1955 209 c-4 -6 -5 -12 -2 -15 2 -3 7 2 10 11 7 17 1 20 -8 4z"/>
<path d="M2250 209 c0 -5 -4 -8 -9 -4 -5 3 -12 1 -15 -4 -4 -5 2 -8 11 -7 15
3 33 26 19 26 -3 0 -6 -5 -6 -11z"/>
<path d="M5 199 c-4 -6 -5 -12 -2 -15 2 -3 7 2 10 11 7 17 1 20 -8 4z"/>
<path d="M126 202 c-3 -5 1 -9 9 -9 8 0 12 4 9 9 -3 4 -7 8 -9 8 -2 0 -6 -4
-9 -8z"/>
<path d="M391 193 c7 -12 15 -20 18 -17 3 2 -3 12 -13 22 -17 16 -18 16 -5 -5z"/>
<path d="M476 201 c-17 -6 -17 -8 -4 -14 10 -3 19 0 22 9 3 8 4 14 3 13 -1 0
-11 -4 -21 -8z"/>
<path d="M790 200 c0 -6 4 -9 9 -6 5 4 12 1 14 -4 3 -6 4 -5 3 2 -3 15 -26 23
-26 8z"/>
<path d="M926 198 c3 -5 10 -6 15 -3 13 9 11 12 -6 12 -8 0 -12 -4 -9 -9z"/>
<path d="M986 202 c-2 -4 4 -8 14 -8 10 0 16 4 14 8 -3 4 -9 8 -14 8 -5 0 -11
-4 -14 -8z"/>
<path d="M1185 197 c-14 -11 -15 -16 -5 -22 9 -6 11 -4 5 5 -5 9 -1 11 16 6
13 -3 18 -3 11 0 -6 3 -10 10 -6 15 7 13 1 11 -21 -4z"/>
<path d="M1320 200 c-8 -5 -10 -10 -5 -10 6 0 17 5 25 10 8 5 11 10 5 10 -5 0
-17 -5 -25 -10z"/>
<path d="M1406 198 c3 -5 10 -6 15 -3 13 9 11 12 -6 12 -8 0 -12 -4 -9 -9z"/>
<path d="M1830 200 c0 -5 5 -10 11 -10 5 0 7 5 4 10 -3 6 -8 10 -11 10 -2 0
-4 -4 -4 -10z"/>
<path d="M1990 190 c6 -11 13 -20 16 -20 2 0 0 9 -6 20 -6 11 -13 20 -16 20
-2 0 0 -9 6 -20z"/>
<path d="M2067 193 c5 -12 3 -14 -7 -8 -8 5 -11 4 -6 -3 4 -6 13 -9 22 -5 11
4 12 9 3 19 -15 19 -20 18 -12 -3z"/>
<path d="M2108 192 c9 -10 19 -17 21 -16 6 5 -20 34 -30 34 -5 0 -1 -8 9 -18z"/>
<path d="M2188 192 c9 -10 19 -17 21 -16 6 5 -20 34 -30 34 -5 0 -1 -8 9 -18z"/>
<path d="M2270 206 c0 -2 7 -7 16 -10 8 -3 12 -2 9 4 -6 10 -25 14 -25 6z"/>
<path d="M2338 203 c6 -2 12 -9 12 -14 0 -6 -4 -8 -9 -5 -5 3 -2 -15 6 -42 27
-87 27 -83 7 -76 -16 5 -16 4 -4 -5 14 -10 7 -16 -13 -12 -5 1 -5 -4 -2 -10 5
-8 10 -8 18 0 18 18 28 12 17 -9 -9 -16 -8 -19 6 -13 12 4 15 3 10 -5 -5 -8 0
-12 13 -12 20 0 20 13 3 44 -3 5 -7 30 -9 55 -2 25 -8 48 -13 49 -15 5 -12 22
3 18 6 -1 9 -1 4 1 -4 3 -4 10 -1 15 4 6 2 8 -3 5 -6 -4 -16 0 -23 8 -7 8 -18
15 -24 14 -7 0 -6 -2 2 -6z"/>
<path d="M2547 193 c5 -12 3 -14 -8 -8 -8 4 -11 4 -6 0 4 -5 18 -10 30 -11 12
-2 16 0 9 2 -6 3 -10 9 -7 14 3 4 -2 10 -10 13 -10 4 -12 1 -8 -10z"/>
<path d="M2586 202 c-2 -4 4 -8 14 -8 10 0 16 4 14 8 -3 4 -9 8 -14 8 -5 0
-11 -4 -14 -8z"/>
<path d="M2766 198 c3 -5 10 -6 15 -3 13 9 11 12 -6 12 -8 0 -12 -4 -9 -9z"/>
<path d="M833 185 c0 -8 4 -12 9 -9 5 3 6 10 3 15 -9 13 -12 11 -12 -6z"/>
<path d="M957 193 c-13 -12 -7 -23 11 -22 10 0 12 3 4 6 -6 2 -10 9 -6 14 6
10 0 12 -9 2z"/>
<path d="M1235 190 c-4 -6 1 -7 11 -3 13 5 15 3 9 -7 -5 -9 -4 -11 4 -6 6 4 9
12 6 17 -8 12 -22 12 -30 -1z"/>
<path d="M1437 193 c-13 -12 -7 -23 11 -22 10 0 12 3 4 6 -6 2 -10 9 -6 14 6
10 0 12 -9 2z"/>
<path d="M1512 184 c-11 -12 -9 -13 7 -11 11 2 24 7 28 12 5 4 3 5 -4 2 -6 -4
-13 -3 -15 2 -1 5 -9 3 -16 -5z"/>
<path d="M1715 191 c-3 -5 0 -13 6 -17 8 -5 9 -3 4 6 -6 10 -4 12 9 7 10 -4
15 -3 11 3 -8 13 -22 13 -30 1z"/>
<path d="M1895 190 c-3 -6 1 -7 9 -4 18 7 21 14 7 14 -6 0 -13 -4 -16 -10z"/>
<path d="M2435 190 c-3 -5 -1 -10 4 -10 6 0 11 5 11 10 0 6 -2 10 -4 10 -3 0
-8 -4 -11 -10z"/>
<path d="M2795 189 c-4 -6 -5 -12 -2 -15 2 -3 7 2 10 11 7 17 1 20 -8 4z"/>
<path d="M156 173 c-6 -14 -5 -15 5 -6 7 7 10 15 7 18 -3 3 -9 -2 -12 -12z"/>
<path d="M365 179 c-4 -6 -4 -13 -1 -16 3 -4 6 -1 6 6 0 7 5 9 12 5 7 -4 8 -3
4 4 -9 15 -13 15 -21 1z"/>
<path d="M1110 180 c-13 -8 -12 -10 3 -10 9 0 17 5 17 10 0 12 -1 12 -20 0z"/>
<path d="M2165 179 c-4 -6 -4 -13 -1 -16 3 -4 6 -1 6 6 0 7 5 9 12 5 7 -4 8
-3 4 4 -9 15 -13 15 -21 1z"/>
<path d="M38 173 c0 -5 -2 -14 -2 -22 -1 -8 -7 -16 -15 -19 -10 -3 -11 2 -6
19 5 19 4 21 -4 9 -6 -8 -11 -48 -11 -87 0 -60 3 -73 16 -73 9 0 12 5 8 12 -5
8 -2 9 9 5 10 -3 17 -2 17 3 0 6 -6 10 -13 10 -13 0 -18 62 -7 74 12 12 60 14
61 3 0 -7 2 -23 4 -37 1 -14 -2 -33 -7 -44 -7 -13 -7 -16 1 -12 6 4 11 2 11
-3 0 -14 30 -14 31 -1 6 71 -4 117 -30 138 -9 8 -10 11 -3 7 6 -3 12 -1 12 4
0 14 -17 14 -25 1 -8 -13 -45 -13 -45 -1 0 5 6 12 13 14 10 4 10 6 0 6 -7 1
-14 -2 -15 -6z"/>
<path d="M184 169 c1 -7 10 -13 19 -15 9 -1 15 2 11 7 -3 5 -9 7 -14 4 -4 -3
-11 0 -13 5 -3 6 -4 5 -3 -1z"/>
<path d="M515 170 c-8 -13 3 -30 18 -30 7 0 6 4 -3 10 -13 9 -13 11 0 20 9 6
10 10 3 10 -6 0 -15 -4 -18 -10z"/>
<path d="M720 172 c0 -7 -5 -10 -12 -6 -7 4 -8 3 -4 -5 4 -6 12 -9 17 -6 5 4
9 1 9 -6 0 -7 3 -10 6 -6 3 3 1 14 -5 24 -6 11 -11 13 -11 5z"/>
<path d="M786 161 c5 -17 3 -21 -6 -16 -8 5 -11 4 -6 -3 9 -15 33 -5 33 13 0
8 -4 12 -8 9 -4 -2 -10 2 -13 8 -3 7 -3 2 0 -11z"/>
<path d="M930 169 c0 -5 -5 -7 -12 -3 -6 4 -8 3 -5 -3 4 -6 0 -14 -9 -17 -22
-8 -26 -8 -19 3 3 5 0 13 -6 17 -7 4 -9 3 -5 -4 3 -6 -2 -15 -11 -21 -14 -8
-15 -11 -3 -11 10 -1 9 -4 -5 -10 -19 -8 -19 -9 3 -9 13 -1 21 -5 17 -10 -3
-5 -1 -13 5 -16 6 -4 10 -3 9 2 -3 20 2 29 20 29 11 0 17 -5 15 -11 -3 -5 1
-3 8 6 11 13 16 14 25 3 10 -10 10 -14 0 -18 -9 -3 -9 -7 1 -14 11 -7 7 -11
-12 -14 -15 -3 -29 -2 -31 3 -3 4 -20 -6 -37 -23 l-31 -30 -13 23 c-7 13 -13
19 -14 14 0 -21 32 -55 51 -55 11 0 18 4 14 9 -7 12 29 33 39 24 3 -3 6 -1 6
5 0 7 8 5 20 -5 14 -13 16 -19 7 -25 -7 -5 -2 -8 15 -8 15 0 30 5 34 12 4 6 3
8 -3 5 -6 -4 -9 10 -8 36 2 63 -12 97 -41 97 -17 0 -22 4 -18 15 4 8 3 15 0
15 -3 0 -6 -5 -6 -11z"/>
<path d="M1028 173 c6 -2 18 -2 25 0 6 3 1 5 -13 5 -14 0 -19 -2 -12 -5z"/>
<path d="M1066 165 c-11 -8 -15 -15 -9 -15 6 0 16 7 23 15 16 19 11 19 -14 0z"/>
<path d="M1406 163 c-6 -14 -5 -15 5 -6 7 7 10 15 7 18 -3 3 -9 -2 -12 -12z"/>
<path d="M1466 165 c-11 -8 -15 -15 -9 -15 6 0 16 7 23 15 16 19 11 19 -14 0z"/>
<path d="M1940 176 c0 -2 7 -7 16 -10 8 -3 12 -2 9 4 -6 10 -25 14 -25 6z"/>
<path d="M2028 172 c8 -5 13 -13 12 -18 -1 -5 4 -10 12 -12 11 -3 11 -2 0 6
-8 5 -13 13 -12 18 1 5 -4 10 -12 12 -11 3 -11 2 0 -6z"/>
<path d="M2100 171 c0 -6 4 -13 10 -16 6 -3 7 1 4 9 -7 18 -14 21 -14 7z"/>
<path d="M2270 170 c-9 -6 -10 -10 -3 -10 6 0 15 5 18 10 8 12 4 12 -15 0z"/>
<path d="M2514 160 c0 -13 4 -16 10 -10 7 7 7 13 0 20 -6 6 -10 3 -10 -10z"/>
<path d="M2595 170 c-8 -13 3 -30 18 -30 8 0 7 3 -2 9 -7 5 -10 14 -7 20 4 6
5 11 2 11 -3 0 -8 -4 -11 -10z"/>
<path d="M2628 173 c6 -2 9 -10 6 -15 -4 -7 -2 -8 5 -4 13 9 5 26 -12 25 -9 0
-8 -2 1 -6z"/>
<path d="M2770 170 c0 -5 -5 -9 -11 -7 -6 1 -14 -5 -16 -13 -4 -12 -3 -12 5
-2 5 8 13 13 18 12 5 -1 10 3 12 9 2 6 1 11 -2 11 -3 0 -6 -4 -6 -10z"/>
<path d="M2826 163 c-6 -14 -5 -15 5 -6 7 7 10 15 7 18 -3 3 -9 -2 -12 -12z"/>
<path d="M267 156 c5 -14 3 -17 -7 -11 -8 5 -11 4 -7 -3 8 -11 33 -11 42 1 3
4 2 5 -2 2 -3 -3 -12 3 -20 13 -12 16 -13 16 -6 -2z"/>
<path d="M446 157 c3 -10 9 -15 12 -12 3 3 0 11 -7 18 -10 9 -11 8 -5 -6z"/>
<path d="M845 160 c-3 -5 -1 -10 4 -10 6 0 11 5 11 10 0 6 -2 10 -4 10 -3 0
-8 -4 -11 -10z"/>
<path d="M990 159 c0 -5 5 -7 10 -4 6 3 10 8 10 11 0 2 -4 4 -10 4 -5 0 -10
-5 -10 -11z"/>
<path d="M1145 162 c4 -4 11 -7 17 -7 12 0 18 -19 23 -85 4 -41 3 -43 -10 -26
-8 11 -17 17 -19 15 -11 -11 44 -61 59 -55 9 3 14 10 11 15 -3 5 1 14 9 21 8
7 15 18 15 24 0 6 -5 3 -11 -6 -5 -10 -15 -18 -21 -18 -9 0 -9 3 0 12 7 7 8
17 2 29 -8 14 -4 19 19 27 33 12 57 1 48 -22 -4 -9 -3 -16 2 -16 5 0 7 -16 4
-35 -4 -31 -2 -35 17 -35 16 0 20 4 16 15 -3 9 0 15 9 15 8 0 15 5 15 11 0 5
-4 7 -10 4 -12 -7 -24 40 -15 56 4 6 1 15 -6 20 -11 7 -11 9 3 9 9 0 19 4 22
8 3 4 -9 7 -25 6 -21 -1 -29 2 -26 10 3 7 -1 13 -9 13 -8 0 -14 -4 -14 -9 0
-4 -7 -8 -16 -8 -8 0 -13 -3 -11 -7 3 -5 -10 -8 -28 -8 -26 0 -31 3 -22 13 6
7 6 12 1 11 -5 -1 -11 0 -14 1 -16 6 -41 7 -35 2z"/>
<path d="M1213 155 c0 -8 4 -12 9 -9 4 3 8 9 8 15 0 5 -4 9 -8 9 -5 0 -9 -7
-9 -15z"/>
<path d="M1694 155 c1 -8 6 -18 11 -22 4 -4 5 -2 1 5 -4 6 -2 12 4 12 6 0 8 5
5 10 -9 15 -24 12 -21 -5z"/>
<path d="M1753 155 c0 -8 4 -15 9 -15 4 0 8 7 8 15 0 8 -4 15 -8 15 -5 0 -9
-7 -9 -15z"/>
<path d="M1821 154 c0 -11 3 -14 6 -6 3 7 2 16 -1 19 -3 4 -6 -2 -5 -13z"/>
<path d="M1884 163 c4 -8 1 -13 -9 -13 -8 0 -20 -11 -25 -25 -5 -14 -12 -25
-15 -25 -4 0 -4 4 0 9 3 5 1 12 -3 15 -5 3 -8 -15 -6 -40 3 -33 1 -44 -9 -41
-6 2 -11 10 -9 16 1 6 -2 11 -8 11 -16 0 -11 -18 9 -32 10 -7 19 -17 19 -23 1
-13 32 -19 32 -7 0 6 10 8 23 6 21 -4 21 -4 1 5 -16 7 -20 17 -18 46 4 42 21
68 38 58 6 -4 15 -8 21 -8 11 0 24 -45 17 -62 -2 -7 -9 -10 -16 -7 -6 3 -3 -1
8 -10 10 -8 15 -19 11 -25 -3 -7 2 -11 14 -11 15 0 19 4 14 17 -5 12 -3 14 7
8 7 -5 11 -4 7 1 -3 5 -8 30 -12 54 -4 25 -13 49 -21 53 -8 5 -12 12 -9 17 3
4 -4 6 -15 3 -11 -3 -28 1 -37 8 -12 10 -14 10 -9 2z"/>
<path d="M2705 159 c-4 -6 -13 -8 -20 -5 -10 3 -13 -9 -12 -54 2 -53 0 -58
-18 -57 -11 0 -24 6 -28 12 -5 6 -7 4 -4 -5 2 -8 10 -15 18 -15 8 0 20 -4 28
-9 11 -7 11 -10 0 -17 -10 -6 -5 -9 14 -9 17 0 26 4 22 11 -4 6 1 17 11 25 11
8 13 13 5 12 -10 -2 -13 11 -14 52 0 39 3 54 12 52 7 -1 10 2 6 8 -8 13 -12
13 -20 -1z"/>
<path d="M2190 151 c0 -7 -5 -9 -12 -5 -7 5 -8 3 -3 -5 5 -9 10 -10 18 -2 6 6
8 14 4 18 -4 3 -7 1 -7 -6z"/>
<path d="M2235 149 c-4 -6 -5 -12 -2 -15 2 -3 7 2 10 11 7 17 1 20 -8 4z"/>
<path d="M135 139 c-6 -8 -4 -10 5 -4 10 6 12 4 7 -7 -4 -12 -1 -14 14 -11 25
7 33 20 18 29 -8 4 -9 3 -5 -4 9 -15 -6 -16 -21 -1 -8 8 -13 7 -18 -2z"/>
<path d="M230 141 c0 -6 4 -13 10 -16 6 -3 7 1 4 9 -7 18 -14 21 -14 7z"/>
<path d="M470 140 c0 -5 5 -10 11 -10 5 0 7 5 4 10 -3 6 -8 10 -11 10 -2 0 -4
-4 -4 -10z"/>
<path d="M605 140 c-3 -5 -1 -18 5 -27 9 -15 10 -14 4 6 -4 17 -3 21 6 16 9
-5 11 -4 6 3 -9 15 -13 15 -21 2z"/>
<path d="M753 128 c1 -15 6 -23 11 -18 4 4 4 16 -2 26 -9 16 -10 14 -9 -8z"/>
<path d="M1004 139 c-3 -6 -2 -15 4 -21 6 -6 12 -6 17 3 6 8 4 10 -5 4 -10 -6
-12 -4 -7 8 7 19 2 23 -9 6z"/>
<path d="M1084 139 c-3 -6 -1 -16 5 -22 9 -9 10 -7 5 7 -6 15 -4 17 6 11 9 -5
11 -4 6 3 -9 15 -13 15 -22 1z"/>
<path d="M1351 127 c-13 -21 -12 -21 5 -5 10 10 16 20 13 22 -3 3 -11 -5 -18
-17z"/>
<path d="M1796 134 c-3 -9 -2 -22 2 -31 6 -10 9 -5 9 16 0 35 -2 38 -11 15z"/>
<path d="M2150 141 c0 -6 4 -13 10 -16 6 -3 7 1 4 9 -7 18 -14 21 -14 7z"/>
<path d="M2255 141 c-9 -15 13 -23 32 -11 15 9 14 10 -6 4 -16 -4 -21 -3 -17
5 4 6 5 11 2 11 -3 0 -7 -4 -11 -9z"/>
<path d="M2420 145 c0 -7 30 -13 34 -7 3 4 -4 9 -15 9 -10 1 -19 0 -19 -2z"/>
<path d="M2534 138 c-4 -7 -3 -8 4 -4 7 4 12 3 12 -2 0 -6 7 -12 14 -15 10 -4
13 -1 10 8 -7 18 -32 27 -40 13z"/>
<path d="M2645 139 c-4 -6 -5 -12 -2 -15 2 -3 7 2 10 11 7 17 1 20 -8 4z"/>
<path d="M2828 128 c-10 -10 -14 -18 -9 -18 10 0 36 29 30 34 -2 1 -12 -6 -21
-16z"/>
<path d="M206 123 c-8 -20 9 -40 19 -22 6 8 4 10 -5 4 -9 -5 -10 -2 -5 14 8
25 0 29 -9 4z"/>
<path d="M700 133 c0 -19 21 -27 33 -13 9 10 9 11 -2 5 -8 -4 -17 -2 -22 6 -6
9 -9 10 -9 2z"/>
<path d="M1130 130 c-9 -6 -10 -10 -3 -10 6 0 15 5 18 10 8 12 4 12 -15 0z"/>
<path d="M1475 130 c3 -5 8 -10 11 -10 2 0 4 5 4 10 0 6 -5 10 -11 10 -5 0 -7
-4 -4 -10z"/>
<path d="M2000 131 c0 -6 4 -13 10 -16 6 -3 7 1 4 9 -7 18 -14 21 -14 7z"/>
<path d="M2860 131 c0 -6 4 -13 10 -16 6 -3 7 1 4 9 -7 18 -14 21 -14 7z"/>
<path d="M526 118 c3 -5 10 -6 15 -3 13 9 11 12 -6 12 -8 0 -12 -4 -9 -9z"/>
<path d="M805 120 c-3 -6 1 -7 9 -4 18 7 21 14 7 14 -6 0 -13 -4 -16 -10z"/>
<path d="M1386 116 c6 -15 4 -17 -6 -11 -9 6 -11 4 -5 -4 5 -9 10 -10 18 -2 8
8 7 14 -2 24 -10 10 -11 8 -5 -7z"/>
<path d="M1430 123 c5 -2 8 -9 5 -13 -3 -5 -1 -11 4 -14 5 -4 8 2 7 11 -2 9
-8 18 -15 19 -6 1 -7 0 -1 -3z"/>
<path d="M1670 122 c0 -5 7 -9 15 -9 8 0 12 4 9 9 -7 10 -24 10 -24 0z"/>
<path d="M1720 115 c-19 -22 -8 -25 13 -3 9 10 13 18 8 18 -5 0 -14 -7 -21
-15z"/>
<path d="M2046 118 c3 -5 10 -6 15 -3 13 9 11 12 -6 12 -8 0 -12 -4 -9 -9z"/>
<path d="M2126 122 c-3 -5 1 -9 9 -9 8 0 12 4 9 9 -3 4 -7 8 -9 8 -2 0 -6 -4
-9 -8z"/>
<path d="M2410 126 c0 -2 7 -7 16 -10 8 -3 12 -2 9 4 -6 10 -25 14 -25 6z"/>
<path d="M2606 118 c3 -5 10 -6 15 -3 13 9 11 12 -6 12 -8 0 -12 -4 -9 -9z"/>
<path d="M2736 122 c-3 -5 1 -9 9 -9 8 0 12 4 9 9 -3 4 -7 8 -9 8 -2 0 -6 -4
-9 -8z"/>
<path d="M2786 117 c3 -10 9 -15 12 -12 3 3 0 11 -7 18 -10 9 -11 8 -5 -6z"/>
<path d="M555 109 c-4 -6 -4 -13 -1 -16 3 -4 6 -1 6 5 0 7 5 12 11 12 5 0 7
-5 3 -12 -4 -7 -3 -8 5 -4 12 8 6 26 -9 26 -5 0 -12 -5 -15 -11z"/>
<path d="M1035 110 c-3 -6 1 -7 9 -4 18 7 21 14 7 14 -6 0 -13 -4 -16 -10z"/>
<path d="M2190 109 c-12 -8 -10 -9 9 -4 17 5 22 4 16 -5 -5 -9 -4 -11 4 -6 6
4 9 12 6 17 -8 12 -16 11 -35 -2z"/>
<path d="M260 106 c0 -2 9 -6 20 -9 11 -3 18 -1 14 4 -5 9 -34 13 -34 5z"/>
<path d="M826 96 c6 -15 4 -17 -6 -11 -9 6 -11 4 -5 -4 5 -9 10 -10 18 -2 8 8
7 14 -2 24 -10 10 -11 8 -5 -7z"/>
<path d="M1476 95 c-9 -26 -7 -32 5 -12 6 10 9 21 6 23 -2 3 -7 -2 -11 -11z"/>
<path d="M1733 97 c-3 -6 -1 -7 5 -3 5 3 13 0 16 -6 5 -11 7 -11 12 0 3 6 11
9 17 5 7 -3 9 -2 4 2 -11 12 -47 13 -54 2z"/>
<path d="M2236 94 c-8 -20 -8 -24 2 -24 4 0 8 9 9 20 2 24 -3 26 -11 4z"/>
<path d="M2285 100 c-8 -13 3 -30 18 -29 9 0 9 2 0 6 -7 2 -13 9 -13 14 0 6 5
7 12 3 7 -4 8 -3 4 4 -9 15 -13 15 -21 2z"/>
<path d="M2330 100 c-9 -6 -10 -10 -3 -10 6 0 15 5 18 10 8 12 4 12 -15 0z"/>
<path d="M2416 97 c3 -10 9 -15 12 -12 3 3 0 11 -7 18 -10 9 -11 8 -5 -6z"/>
<path d="M2853 103 c4 -6 3 -13 -2 -15 -5 -1 -3 -9 5 -16 12 -11 13 -9 11 7
-2 11 -7 24 -12 28 -4 5 -5 3 -2 -4z"/>
<path d="M47 86 c-3 -8 0 -17 7 -19 10 -4 12 1 9 14 -6 23 -9 24 -16 5z"/>
<path d="M726 85 c-3 -8 -1 -15 4 -15 6 0 10 7 10 15 0 8 -2 15 -4 15 -2 0 -6
-7 -10 -15z"/>
<path d="M1011 84 c0 -11 3 -14 6 -6 3 7 2 16 -1 19 -3 4 -6 -2 -5 -13z"/>
<path d="M1090 89 c0 -5 -5 -7 -11 -3 -8 4 -7 0 1 -15 9 -18 30 -21 30 -5 0 3
-5 2 -11 -2 -8 -4 -9 0 -4 15 3 11 4 21 1 21 -3 0 -6 -5 -6 -11z"/>
<path d="M1350 90 c0 -5 5 -10 11 -10 5 0 7 5 4 10 -3 6 -8 10 -11 10 -2 0 -4
-4 -4 -10z"/>
<path d="M1687 86 c-4 -10 -3 -15 3 -11 6 3 10 1 10 -6 0 -7 3 -10 6 -6 3 3 2
13 -4 22 -8 16 -9 16 -15 1z"/>
<path d="M2050 91 c0 -7 -4 -10 -9 -6 -5 3 -13 0 -17 -6 -4 -8 -3 -9 4 -5 7 4
12 1 12 -6 0 -8 5 -6 11 5 6 10 8 21 5 24 -3 4 -6 1 -6 -6z"/>
<path d="M2611 93 c-1 -17 16 -25 25 -12 4 7 3 9 -4 5 -5 -3 -13 0 -15 6 -4 9
-6 10 -6 1z"/>
<path d="M2749 91 c8 -5 10 -14 6 -22 -6 -11 -5 -11 5 -2 14 12 6 33 -13 33
-8 0 -7 -3 2 -9z"/>
<path d="M170 80 c0 -5 5 -10 10 -10 6 0 10 5 10 10 0 6 -4 10 -10 10 -5 0
-10 -4 -10 -10z"/>
<path d="M250 82 c0 -5 7 -9 15 -9 8 0 12 4 9 9 -7 10 -24 10 -24 0z"/>
<path d="M466 82 c-3 -5 1 -9 9 -9 8 0 12 4 9 9 -3 4 -7 8 -9 8 -2 0 -6 -4 -9
-8z"/>
<path d="M600 80 c8 -5 20 -10 25 -10 6 0 3 5 -5 10 -8 5 -19 10 -25 10 -5 0
-3 -5 5 -10z"/>
<path d="M1130 80 c0 -5 5 -10 10 -10 6 0 10 5 10 10 0 6 -4 10 -10 10 -5 0
-10 -4 -10 -10z"/>
<path d="M1396 75 c-11 -8 -16 -15 -10 -15 5 0 18 7 28 15 11 8 16 15 10 15
-5 0 -18 -7 -28 -15z"/>
<path d="M1905 77 c-15 -12 -16 -15 -4 -22 8 -5 11 -5 7 0 -4 4 0 14 10 21 23
18 11 18 -13 1z"/>
<path d="M2090 80 c0 -5 5 -10 10 -10 6 0 10 5 10 10 0 6 -4 10 -10 10 -5 0
-10 -4 -10 -10z"/>
<path d="M2170 82 c0 -5 7 -9 15 -9 8 0 12 4 9 9 -3 4 -9 8 -15 8 -5 0 -9 -4
-9 -8z"/>
<path d="M390 69 c0 -5 -5 -7 -12 -3 -7 4 -8 3 -4 -5 6 -9 11 -9 22 0 17 14
18 19 4 19 -5 0 -10 -5 -10 -11z"/>
<path d="M792 66 c7 -8 15 -12 17 -11 5 6 -10 25 -20 25 -5 0 -4 -6 3 -14z"/>
<path d="M853 63 c1 -18 4 -20 17 -10 25 19 26 20 8 14 -9 -3 -19 -1 -21 6 -3
7 -4 2 -4 -10z"/>
<path d="M2550 69 c0 -5 -6 -7 -12 -3 -7 4 -10 3 -5 -1 4 -5 18 -10 30 -11 12
-2 16 0 9 2 -6 3 -10 10 -6 15 3 5 0 9 -5 9 -6 0 -11 -5 -11 -11z"/>
<path d="M2792 71 c-10 -6 -9 -10 7 -14 12 -3 24 0 28 5 3 6 1 8 -5 4 -5 -3
-12 -2 -14 4 -2 5 -9 6 -16 1z"/>
<path d="M275 60 c-16 -7 -17 -9 -3 -9 9 -1 20 4 23 9 7 11 7 11 -20 0z"/>
<path d="M515 61 c-3 -5 -2 -12 3 -15 5 -3 9 1 9 9 0 17 -3 19 -12 6z"/>
<path d="M590 63 c0 -6 8 -17 18 -24 16 -13 16 -13 2 6 -8 11 -16 22 -17 24
-2 2 -3 0 -3 -6z"/>
<path d="M1033 55 c0 -8 4 -12 9 -9 4 3 8 9 8 15 0 5 -4 9 -8 9 -5 0 -9 -7 -9
-15z"/>
<path d="M1414 58 c-5 -7 -2 -8 6 -3 10 6 12 4 6 -10 -5 -15 -4 -16 9 -5 19
15 19 16 0 23 -8 4 -17 1 -21 -5z"/>
<path d="M1708 48 c-10 -10 -14 -18 -9 -18 10 0 36 29 30 34 -2 1 -12 -6 -21
-16z"/>
<path d="M1990 60 c0 -5 5 -10 10 -10 6 0 10 5 10 10 0 6 -4 10 -10 10 -5 0
-10 -4 -10 -10z"/>
<path d="M2255 61 c-9 -15 15 -25 28 -12 9 9 7 10 -7 5 -13 -5 -17 -4 -12 4 4
7 5 12 2 12 -3 0 -7 -4 -11 -9z"/>
<path d="M2406 62 c-3 -5 1 -9 9 -9 8 0 15 4 15 9 0 10 -17 10 -24 0z"/>
<path d="M2510 61 c0 -10 29 -36 34 -30 1 2 -6 12 -16 22 -10 9 -18 13 -18 8z"/>
<path d="M2588 48 c-10 -10 -14 -18 -9 -18 10 0 36 29 30 34 -2 1 -12 -6 -21
-16z"/>
<path d="M2828 48 c-10 -10 -14 -18 -9 -18 10 0 36 29 30 34 -2 1 -12 -6 -21
-16z"/>
<path d="M70 45 c-7 -9 -11 -17 -9 -20 3 -2 10 5 17 15 14 24 10 26 -8 5z"/>
<path d="M202 40 c7 -10 14 -18 15 -16 6 6 -9 36 -18 36 -5 0 -4 -9 3 -20z"/>
<path d="M470 50 c0 -5 7 -7 15 -4 8 4 15 8 15 10 0 2 -7 4 -15 4 -8 0 -15 -4
-15 -10z"/>
<path d="M543 50 c2 -8 10 -15 17 -15 7 0 15 7 17 15 4 13 3 13 -6 0 -10 -13
-12 -13 -22 0 -9 13 -10 13 -6 0z"/>
<path d="M1468 53 c6 -2 9 -10 6 -15 -4 -7 -2 -8 5 -4 13 9 5 26 -12 25 -9 0
-8 -2 1 -6z"/>
<path d="M2122 40 c7 -10 14 -18 15 -16 6 6 -9 36 -18 36 -5 0 -4 -9 3 -20z"/>
<path d="M2486 43 c-6 -14 -5 -15 5 -6 7 7 10 15 7 18 -3 3 -9 -2 -12 -12z"/>
<path d="M154 35 c1 -8 6 -18 11 -22 4 -5 5 -2 0 6 -6 11 -4 13 8 8 23 -9 21
0 -2 13 -15 7 -19 7 -17 -5z"/>
<path d="M236 35 c-9 -26 -7 -32 5 -12 6 10 9 21 6 23 -2 3 -7 -2 -11 -11z"/>
<path d="M741 41 c-10 -7 -7 -9 12 -8 14 1 23 5 20 10 -6 9 -15 9 -32 -2z"/>
<path d="M1060 41 c0 -9 30 -24 36 -18 2 1 -6 8 -16 15 -11 7 -20 8 -20 3z"/>
<path d="M1114 36 c1 -8 5 -18 8 -22 4 -3 5 1 4 10 -1 8 -5 18 -8 22 -4 3 -5
-1 -4 -10z"/>
<path d="M1266 38 c3 -5 10 -6 15 -3 13 9 11 12 -6 12 -8 0 -12 -4 -9 -9z"/>
<path d="M1388 32 c9 -10 19 -17 21 -16 6 5 -20 34 -30 34 -5 0 -1 -8 9 -18z"/>
<path d="M1746 35 c7 -18 32 -27 40 -13 4 7 3 8 -4 4 -7 -4 -12 -3 -12 2 0 6
-7 12 -14 15 -10 4 -13 1 -10 -8z"/>
<path d="M1887 39 c7 -7 15 -10 18 -7 3 3 -2 9 -12 12 -14 6 -15 5 -6 -5z"/>
<path d="M2074 42 c3 -6 0 -13 -6 -16 -7 -3 -2 -3 11 0 17 5 21 3 16 -6 -5 -9
-4 -11 3 -6 16 10 15 14 -9 27 -13 6 -19 7 -15 1z"/>
<path d="M2156 35 c-9 -26 -7 -32 5 -12 6 10 9 21 6 23 -2 3 -7 -2 -11 -11z"/>
<path d="M2196 34 c-11 -8 -16 -14 -10 -14 13 0 39 18 34 24 -3 2 -14 -2 -24
-10z"/>
<path d="M2750 36 c7 -7 13 -7 20 0 6 6 3 10 -10 10 -13 0 -16 -4 -10 -10z"/>
<path d="M710 31 c0 -7 -5 -9 -12 -5 -7 4 -10 3 -5 -1 4 -5 18 -10 30 -12 12
-2 18 0 12 5 -5 4 -13 11 -17 16 -5 5 -8 4 -8 -3z"/>
<path d="M1000 36 c0 -2 7 -7 16 -10 8 -3 12 -2 9 4 -6 10 -25 14 -25 6z"/>
<path d="M2015 30 c-4 -6 1 -7 11 -3 13 5 15 3 9 -7 -5 -9 -4 -11 4 -6 6 4 9
12 6 17 -8 12 -22 12 -30 -1z"/>
<path d="M395 21 c-3 -5 -2 -12 3 -15 5 -3 9 1 9 9 0 17 -3 19 -12 6z"/>
<path d="M906 22 c-3 -4 4 -9 15 -9 23 -2 25 3 4 10 -8 4 -16 3 -19 -1z"/>
<path d="M1445 19 c-4 -6 -4 -13 -1 -16 3 -4 6 -1 6 6 0 7 5 9 12 5 7 -4 8 -3
4 4 -9 15 -13 15 -21 1z"/>
<path d="M2233 15 c0 -8 4 -12 9 -9 4 3 8 9 8 15 0 5 -4 9 -8 9 -5 0 -9 -7 -9
-15z"/>
<path d="M517 9 c7 -7 15 -10 18 -7 3 3 -2 9 -12 12 -14 6 -15 5 -6 -5z"/>
<path d="M590 10 c-9 -6 -10 -10 -3 -10 6 0 15 5 18 10 8 12 4 12 -15 0z"/>
<path d="M780 16 c0 -2 7 -7 16 -10 8 -3 12 -2 9 4 -6 10 -25 14 -25 6z"/>
<path d="M1700 16 c0 -2 7 -7 16 -10 8 -3 12 -2 9 4 -6 10 -25 14 -25 6z"/>
<path d="M1915 10 c3 -5 8 -10 11 -10 2 0 4 5 4 10 0 6 -5 10 -11 10 -5 0 -7
-4 -4 -10z"/>
<path d="M2510 10 c-9 -6 -10 -10 -3 -10 6 0 15 5 18 10 8 12 4 12 -15 0z"/>
<path d="M2597 9 c7 -7 15 -10 18 -7 3 3 -2 9 -12 12 -14 6 -15 5 -6 -5z"/>
<path d="M2790 10 c-9 -6 -10 -10 -3 -10 6 0 15 5 18 10 8 12 4 12 -15 0z"/>
</g>
</svg>
